<svg width="32" height="23" viewBox="0 0 32 23" fill="none" xmlns="http://www.w3.org/2000/svg">
<path opacity="0.5" d="M25.5492 12.4567L28.7828 19.5597C29.0898 20.234 28.5969 21 27.856 21H21.0083C20.2482 21 19.756 20.1973 20.1007 19.5198L23.7148 12.4169C24.1016 11.6566 25.1958 11.6804 25.5492 12.4567Z" fill="white"/>
<path d="M4.45488 1.7854H18.0296C19.1623 1.7854 20.0826 2.69239 20.0826 3.80867V6.04125C20.0826 6.86103 19.5694 7.87267 19.0561 8.37849L14.6315 12.2332C14.012 12.739 13.605 13.7506 13.605 14.5704V18.9309C13.605 19.5414 13.1979 20.3437 12.6847 20.6577L11.2511 21.5472C9.906 22.367 8.06536 21.4426 8.06536 19.8205V14.4483C8.06536 13.7332 7.6583 12.8262 7.23353 12.3204L3.32218 8.25639C2.80892 7.76801 2.40186 6.84359 2.40186 6.23312V3.91333C2.40186 2.69239 3.32218 1.7854 4.45488 1.7854Z" stroke="white" stroke-width="1.62845" stroke-miterlimit="10" stroke-linecap="round" stroke-linejoin="round"/>
<path d="M19.8613 3.00387L31.0003 3.00394" stroke="white" stroke-width="0.968563" stroke-linecap="round"/>
<path d="M19.8613 5.20309L29.7463 5.20316" stroke="white" stroke-width="0.968563" stroke-linecap="round"/>
<line x1="20.4704" y1="7.44931" x2="27.8122" y2="7.44931" stroke="white" stroke-width="0.968563" stroke-linecap="round"/>
</svg>
