<svg width="49" height="30" viewBox="0 0 49 30" fill="none" xmlns="http://www.w3.org/2000/svg">
<g filter="url(#filter0_d_311_21122)">
<path d="M6 4.5C5.17157 4.5 4.5 5.17157 4.5 6C4.5 6.82843 5.17157 7.5 6 7.5V4.5ZM6 7.5H45V4.5H6V7.5Z" fill="#252525"/>
</g>
<g filter="url(#filter1_d_311_21122)">
<path d="M6 13.5C5.17157 13.5 4.5 14.1716 4.5 15C4.5 15.8284 5.17157 16.5 6 16.5V13.5ZM6 16.5H38.5V13.5H6V16.5Z" fill="#252525"/>
</g>
<g filter="url(#filter2_d_311_21122)">
<path d="M6 22.5C5.17157 22.5 4.5 23.1716 4.5 24C4.5 24.8284 5.17157 25.5 6 25.5V22.5ZM6 25.5H30.375V22.5H6V25.5Z" fill="#252525"/>
</g>
<defs>
<filter id="filter0_d_311_21122" x="0.5" y="0.5" width="48.5" height="11" filterUnits="userSpaceOnUse" color-interpolation-filters="sRGB">
<feFlood flood-opacity="0" result="BackgroundImageFix"/>
<feColorMatrix in="SourceAlpha" type="matrix" values="0 0 0 0 0 0 0 0 0 0 0 0 0 0 0 0 0 0 127 0" result="hardAlpha"/>
<feOffset/>
<feGaussianBlur stdDeviation="2"/>
<feComposite in2="hardAlpha" operator="out"/>
<feColorMatrix type="matrix" values="0 0 0 0 0 0 0 0 0 0 0 0 0 0 0 0 0 0 0.25 0"/>
<feBlend mode="normal" in2="BackgroundImageFix" result="effect1_dropShadow_311_21122"/>
<feBlend mode="normal" in="SourceGraphic" in2="effect1_dropShadow_311_21122" result="shape"/>
</filter>
<filter id="filter1_d_311_21122" x="0.5" y="9.5" width="42" height="11" filterUnits="userSpaceOnUse" color-interpolation-filters="sRGB">
<feFlood flood-opacity="0" result="BackgroundImageFix"/>
<feColorMatrix in="SourceAlpha" type="matrix" values="0 0 0 0 0 0 0 0 0 0 0 0 0 0 0 0 0 0 127 0" result="hardAlpha"/>
<feOffset/>
<feGaussianBlur stdDeviation="2"/>
<feComposite in2="hardAlpha" operator="out"/>
<feColorMatrix type="matrix" values="0 0 0 0 0 0 0 0 0 0 0 0 0 0 0 0 0 0 0.25 0"/>
<feBlend mode="normal" in2="BackgroundImageFix" result="effect1_dropShadow_311_21122"/>
<feBlend mode="normal" in="SourceGraphic" in2="effect1_dropShadow_311_21122" result="shape"/>
</filter>
<filter id="filter2_d_311_21122" x="0.5" y="18.5" width="33.875" height="11" filterUnits="userSpaceOnUse" color-interpolation-filters="sRGB">
<feFlood flood-opacity="0" result="BackgroundImageFix"/>
<feColorMatrix in="SourceAlpha" type="matrix" values="0 0 0 0 0 0 0 0 0 0 0 0 0 0 0 0 0 0 127 0" result="hardAlpha"/>
<feOffset/>
<feGaussianBlur stdDeviation="2"/>
<feComposite in2="hardAlpha" operator="out"/>
<feColorMatrix type="matrix" values="0 0 0 0 0 0 0 0 0 0 0 0 0 0 0 0 0 0 0.25 0"/>
<feBlend mode="normal" in2="BackgroundImageFix" result="effect1_dropShadow_311_21122"/>
<feBlend mode="normal" in="SourceGraphic" in2="effect1_dropShadow_311_21122" result="shape"/>
</filter>
</defs>
</svg>
