<svg width="20" height="23" viewBox="0 0 20 23" fill="none" xmlns="http://www.w3.org/2000/svg">
<path d="M3.32734 1.09766H16.4559C17.5513 1.09766 18.4414 2.01252 18.4414 3.1385V5.39046C18.4414 6.21735 17.945 7.23777 17.4486 7.74798L13.1694 11.6361C12.5704 12.1463 12.1767 13.1668 12.1767 13.9937V18.392C12.1767 19.0078 11.783 19.8171 11.2866 20.1338L9.90015 21.031C8.59928 21.8579 6.81914 20.9255 6.81914 19.2893V13.8705C6.81914 13.1492 6.42546 12.2343 6.01466 11.7241L2.23187 7.62483C1.73548 7.13221 1.3418 6.19976 1.3418 5.58399V3.24406C1.3418 2.01252 2.23187 1.09766 3.32734 1.09766Z" stroke="white" stroke-width="1.5538" stroke-miterlimit="10" stroke-linecap="round" stroke-linejoin="round"/>
</svg>
