<svg width="26" height="25" viewBox="0 0 26 25" fill="none" xmlns="http://www.w3.org/2000/svg">
<path opacity="0.5" fill-rule="evenodd" clip-rule="evenodd" d="M24.5485 8.70796L14.2459 0.519027C13.8251 0.184626 13.2696 0 12.6828 0C12.0954 0 11.5408 0.184626 11.1197 0.519027L0.817054 8.70796C0.351454 9.07807 0 9.81226 0 10.4151V11.5263C0 12.2389 0.567062 12.8184 1.26433 12.8184H3.03147C3.23383 12.8184 3.39843 12.9866 3.39843 13.1931V20.8604C3.39843 22.6451 4.81946 24.0973 6.56574 24.0973H18.7996C20.5461 24.0973 21.9672 22.6451 21.9672 20.8604V13.1931C21.9672 12.9866 22.1318 12.8184 22.3341 12.8184H24.1013C24.7985 12.8184 25.3656 12.2386 25.3656 11.5263V10.4151C25.3656 9.81226 25.0141 9.07807 24.5485 8.70796Z" fill="black" fill-opacity="0.5"/>
<path fill-rule="evenodd" clip-rule="evenodd" d="M15.3604 24.449H10.0049V18.2327C10.0049 16.4875 10.7747 15.0684 12.6826 15.0684C14.5906 15.0684 15.3604 16.4875 15.3604 18.2327V24.449Z" fill="white"/>
</svg>
