<svg width="24" height="22" viewBox="0 0 24 22" fill="none" xmlns="http://www.w3.org/2000/svg">
<path d="M23.6159 4.6108V18.1142C23.6159 18.3269 23.5096 18.5159 23.3324 18.6222L19.9181 20.6661C19.7291 20.7724 19.5047 20.7724 19.3156 20.6661L7.96234 14.062C7.78513 13.9557 7.66699 13.7667 7.66699 13.554V11.9828C7.66699 11.522 8.16318 11.2385 8.56485 11.4747L18.595 17.4881C18.9848 17.7244 19.4928 17.4408 19.4928 16.9801V7.139C19.4928 6.92635 19.3865 6.73733 19.2093 6.63101L14.3892 3.73655C14.0111 3.51209 14.0111 2.95683 14.3892 2.72055L17.4254 0.889386C17.6144 0.771246 17.8507 0.771246 18.0397 0.889386L23.356 4.07917C23.5096 4.20913 23.6159 4.40996 23.6159 4.6108Z" fill="#5E54FF"/>
<path d="M10.9634 18.9646L6.20237 21.8236C6.01334 21.9417 5.77707 21.9417 5.59986 21.8236L0.283543 18.6338C0.106333 18.5274 0 18.3384 0 18.1258V4.62232C0 4.40967 0.106333 4.22065 0.283543 4.11433L5.59986 0.924543C5.78888 0.806402 6.02516 0.806402 6.20237 0.924543L17.4257 7.65854C17.6029 7.76486 17.7092 7.95388 17.7092 8.16653V13.8727C17.7092 14.3335 17.2131 14.617 16.8114 14.3807L6.78126 8.36739C6.3914 8.13111 5.8834 8.41463 5.8834 8.87538V14.5816C5.8834 14.7942 5.98972 14.9832 6.16693 15.0896L10.9398 17.9604C11.3415 18.1848 11.3415 18.7283 10.9634 18.9646Z" fill="#5E54FF"/>
</svg>
