<svg width="23" height="27" viewBox="0 0 23 27" fill="none" xmlns="http://www.w3.org/2000/svg">
<path d="M17.4844 18.1538L16.3232 16.2262C16.0793 15.7966 15.8587 14.9837 15.8587 14.5076V11.5698C15.8587 8.84097 14.2563 6.48372 11.9455 5.38058C11.3416 4.31228 10.2269 3.65039 8.94956 3.65039C7.68385 3.65039 6.54587 4.3355 5.94204 5.41542C3.6777 6.54178 2.11008 8.8758 2.11008 11.5698V14.5076C2.11008 14.9837 1.88945 15.7966 1.6456 16.2146L0.472782 18.1538C0.00830124 18.9318 -0.0962072 19.7911 0.194093 20.5807C0.472782 21.3587 1.13467 21.9626 1.99396 22.2529C4.24669 23.0192 6.61554 23.3908 8.9844 23.3908C11.3532 23.3908 13.7221 23.0192 15.9748 22.2645C16.7877 21.9974 17.4147 21.382 17.7166 20.5807C18.0186 19.7795 17.9373 18.897 17.4844 18.1538Z" fill="#BFBFBF"/>
<path d="M12.2474 24.5624C11.7597 25.9094 10.4708 26.8732 8.96124 26.8732C8.04389 26.8732 7.13815 26.5016 6.49949 25.8397C6.1279 25.4913 5.84921 25.0268 5.68665 24.5508C5.8376 24.574 5.98856 24.5856 6.15113 24.6088C6.4182 24.6436 6.69689 24.6785 6.97558 24.7017C7.63746 24.7598 8.31096 24.7946 8.98446 24.7946C9.64635 24.7946 10.3082 24.7598 10.9585 24.7017C11.2024 24.6785 11.4462 24.6669 11.6784 24.632C11.8642 24.6088 12.05 24.5856 12.2474 24.5624Z" fill="#BFBFBF"/>
<circle cx="15.3443" cy="7.65584" r="7.109" fill="#5E54FF" stroke="#5E54FF" stroke-width="1.09369"/>
<path d="M11.4705 5.2711V4.17377H13.5206V10.375H12.2957V5.2711H11.4705ZM14.7822 7.19357C14.7822 6.21249 14.958 5.44407 15.3096 4.88831C15.6668 4.33255 16.2566 4.05467 17.0789 4.05467C17.9012 4.05467 18.4882 4.33255 18.8398 4.88831C19.197 5.44407 19.3757 6.21249 19.3757 7.19357C19.3757 8.18032 19.197 8.95442 18.8398 9.51584C18.4882 10.0773 17.9012 10.358 17.0789 10.358C16.2566 10.358 15.6668 10.0773 15.3096 9.51584C14.958 8.95442 14.7822 8.18032 14.7822 7.19357ZM18.2018 7.19357C18.2018 6.77392 18.1734 6.42232 18.1167 6.13877C18.0657 5.84954 17.9579 5.6142 17.7935 5.43273C17.6347 5.25125 17.3965 5.16052 17.0789 5.16052C16.7613 5.16052 16.5203 5.25125 16.3559 5.43273C16.1971 5.6142 16.0893 5.84954 16.0326 6.13877C15.9816 6.42232 15.9561 6.77392 15.9561 7.19357C15.9561 7.62457 15.9816 7.98751 16.0326 8.2824C16.0837 8.57162 16.1914 8.80697 16.3559 8.98844C16.5203 9.16424 16.7613 9.25214 17.0789 9.25214C17.3965 9.25214 17.6375 9.16424 17.802 8.98844C17.9664 8.80697 18.0742 8.57162 18.1252 8.2824C18.1762 7.98751 18.2018 7.62457 18.2018 7.19357Z" fill="white"/>
</svg>
