<svg width="24" height="23" viewBox="0 0 24 23" fill="none" xmlns="http://www.w3.org/2000/svg">
<rect width="24" height="23" fill="#1E1E1E"/>
<g clip-path="url(#clip0_311_20111)">
<rect width="1440" height="1106" transform="translate(-1164 -273)" fill="white"/>
<g filter="url(#filter0_d_311_20111)">
<rect x="-942" y="-10" width="1036" height="818" rx="5" fill="white"/>
</g>
<rect y="0.0273438" width="23.0416" height="22" rx="4.19239" fill="#8078FF" fill-opacity="0.5"/>
<ellipse cx="11.5209" cy="11.0271" rx="8.22916" ry="7.85714" fill="white"/>
<ellipse cx="11.5208" cy="11.0282" rx="4.11458" ry="3.92857" fill="#8078FF" fill-opacity="0.5"/>
<path d="M13.6701 11.3079H12.1457V12.87H11.3458V11.3079H9.82148V10.5835H11.3458V9.0214H12.1457V10.5835H13.6701V11.3079Z" fill="white"/>
<line x1="11.9407" y1="18.8848" x2="11.9407" y2="22.0276" stroke="white" stroke-width="0.838477"/>
<line x1="11.9397" y1="0.0273437" x2="11.9397" y2="3.1702" stroke="white" stroke-width="0.838477"/>
<line y1="11.3933" x2="3.29166" y2="11.3933" stroke="white" stroke-width="0.838477"/>
<line x1="19.75" y1="11.3934" x2="23.0417" y2="11.3934" stroke="white" stroke-width="0.838477"/>
</g>
<defs>
<filter id="filter0_d_311_20111" x="-946" y="-14" width="1044" height="826" filterUnits="userSpaceOnUse" color-interpolation-filters="sRGB">
<feFlood flood-opacity="0" result="BackgroundImageFix"/>
<feColorMatrix in="SourceAlpha" type="matrix" values="0 0 0 0 0 0 0 0 0 0 0 0 0 0 0 0 0 0 127 0" result="hardAlpha"/>
<feOffset/>
<feGaussianBlur stdDeviation="2"/>
<feComposite in2="hardAlpha" operator="out"/>
<feColorMatrix type="matrix" values="0 0 0 0 0 0 0 0 0 0 0 0 0 0 0 0 0 0 0.25 0"/>
<feBlend mode="normal" in2="BackgroundImageFix" result="effect1_dropShadow_311_20111"/>
<feBlend mode="normal" in="SourceGraphic" in2="effect1_dropShadow_311_20111" result="shape"/>
</filter>
<clipPath id="clip0_311_20111">
<rect width="1440" height="1106" fill="white" transform="translate(-1164 -273)"/>
</clipPath>
</defs>
</svg>
