<svg width="24" height="25" viewBox="0 0 24 25" fill="none" xmlns="http://www.w3.org/2000/svg">
<path d="M8.38436 0.798828C5.26418 0.798828 2.72754 3.33546 2.72754 6.45565C2.72754 9.51628 5.12127 11.9934 8.24145 12.1006C8.33672 12.0886 8.43199 12.0886 8.50345 12.1006C8.52727 12.1006 8.53917 12.1006 8.56299 12.1006C8.5749 12.1006 8.5749 12.1006 8.58681 12.1006C11.6355 11.9934 14.0293 9.51628 14.0412 6.45565C14.0412 3.33546 11.5045 0.798828 8.38436 0.798828Z" fill="#BFBFBF"/>
<path d="M14.4338 15.2687C11.1112 13.0536 5.69255 13.0536 2.34609 15.2687C0.833636 16.281 0 17.6506 0 19.1154C0 20.5802 0.833636 21.9378 2.33418 22.9382C4.00145 24.0577 6.19273 24.6174 8.384 24.6174C10.5753 24.6174 12.7665 24.0577 14.4338 22.9382C15.9344 21.9259 16.768 20.5683 16.768 19.0916C16.7561 17.6267 15.9344 16.2691 14.4338 15.2687Z" fill="#BFBFBF"/>
<path d="M21.4723 7.15835C21.6628 9.46871 20.0194 11.4933 17.7447 11.7672C17.7328 11.7672 17.7328 11.7672 17.7209 11.7672H17.6852C17.6137 11.7672 17.5423 11.7672 17.4827 11.791C16.3275 11.8505 15.2676 11.4813 14.4697 10.8025C15.6964 9.70689 16.399 8.06344 16.2561 6.27708C16.1727 5.31244 15.8393 4.43117 15.3391 3.68089C15.7916 3.45462 16.3156 3.31171 16.8515 3.26408C19.1857 3.06162 21.2698 4.80035 21.4723 7.15835Z" fill="#BFBFBF"/>
<path d="M23.8544 18.174C23.7591 19.3292 23.0208 20.3296 21.7822 21.0084C20.5913 21.6634 19.0908 21.973 17.6021 21.9373C18.4596 21.1632 18.9598 20.1986 19.0551 19.1744C19.1741 17.6977 18.4715 16.2805 17.0662 15.1491C16.2683 14.5179 15.3394 14.0178 14.3271 13.6486C16.9591 12.8864 20.2698 13.3985 22.3062 15.0419C23.4019 15.9232 23.9616 17.0308 23.8544 18.174Z" fill="#BFBFBF"/>
</svg>
