<svg width="22" height="27" viewBox="0 0 22 27" fill="none" xmlns="http://www.w3.org/2000/svg">
<path opacity="0.5" d="M22 8.1L13.75 0H2.75C2.02065 0 1.32118 0.284463 0.805456 0.790812C0.289731 1.29716 0 1.98392 0 2.7V24.3C0 25.0161 0.289731 25.7028 0.805456 26.2092C1.32118 26.7155 2.02065 27 2.75 27H19.25C19.9793 27 20.6788 26.7155 21.1945 26.2092C21.7103 25.7028 22 25.0161 22 24.3V8.1ZM6.875 22.95H4.125V10.8H6.875V22.95ZM12.375 22.95H9.625V14.85H12.375V22.95ZM17.875 22.95H15.125V18.9H17.875V22.95ZM13.75 9.45H12.375V2.7L19.25 9.45H13.75Z" fill="black" fill-opacity="0.5"/>
</svg>
