<svg width="25" height="24" viewBox="0 0 25 24" fill="none" xmlns="http://www.w3.org/2000/svg">
<path d="M22.6123 8.75189C20.4102 8.75189 19.5099 7.19459 20.6048 5.28446C21.2375 4.17732 20.8603 2.76601 19.7532 2.13336L17.6484 0.928882C16.6872 0.35706 15.4463 0.69772 14.8744 1.65887L14.7406 1.89003C13.6456 3.80016 11.845 3.80016 10.7379 1.89003L10.604 1.65887C10.0565 0.69772 8.81557 0.35706 7.85442 0.928882L5.74963 2.13336C4.64248 2.76601 4.26532 4.18948 4.89798 5.29663C6.00512 7.19459 5.10481 8.75189 2.90268 8.75189C1.63738 8.75189 0.591064 9.78604 0.591064 11.0635V13.2048C0.591064 14.4701 1.62521 15.5164 2.90268 15.5164C5.10481 15.5164 6.00512 17.0737 4.89798 18.9839C4.26532 20.091 4.64248 21.5023 5.74963 22.135L7.85442 23.3394C8.81557 23.9113 10.0565 23.5706 10.6284 22.6094L10.7622 22.3783C11.8572 20.4682 13.6578 20.4682 14.7649 22.3783L14.8988 22.6094C15.4706 23.5706 16.7116 23.9113 17.6727 23.3394L19.7775 22.135C20.8847 21.5023 21.2618 20.0788 20.6292 18.9839C19.522 17.0737 20.4223 15.5164 22.6245 15.5164C23.8898 15.5164 24.9361 14.4823 24.9361 13.2048V11.0635C24.9239 9.7982 23.8898 8.75189 22.6123 8.75189ZM12.7575 16.0882C10.5797 16.0882 8.8034 14.3119 8.8034 12.1342C8.8034 9.95637 10.5797 8.18007 12.7575 8.18007C14.9353 8.18007 16.7116 9.95637 16.7116 12.1342C16.7116 14.3119 14.9353 16.0882 12.7575 16.0882Z" fill="#BFBFBF"/>
</svg>
