<svg width="19" height="19" viewBox="0 0 19 19" fill="none" xmlns="http://www.w3.org/2000/svg">
<g opacity="0.5">
<path d="M14.6777 14.6313L18.2281 18.5258L18.9403 17.7937L15.1514 14.1445L15.052 14.3898L14.6777 14.6313Z" fill="black" fill-opacity="0.7"/>
<path d="M14.6777 14.6313L18.2281 18.5258L18.9403 17.7937L15.1514 14.1445L15.052 14.3898L14.6777 14.6313Z" fill="black" fill-opacity="0.7"/>
<path d="M9.46749 17.5525C7.20649 17.5525 5.0381 16.6293 3.43933 14.986C1.84056 13.3427 0.942383 11.1139 0.942383 8.7899C0.942383 6.46592 1.84056 4.23713 3.43933 2.59384C5.0381 0.950539 7.20649 0.0273438 9.46749 0.0273438C11.7285 0.0273438 13.8969 0.950539 15.4957 2.59384C17.0944 4.23713 17.9926 6.46592 17.9926 8.7899C17.9926 11.1139 17.0944 13.3427 15.4957 14.986C13.8969 16.6293 11.7285 17.5525 9.46749 17.5525ZM9.46749 16.5216C11.4625 16.5216 13.3758 15.707 14.7865 14.257C16.1971 12.807 16.9896 10.8405 16.9896 8.7899C16.9896 6.73933 16.1971 4.77275 14.7865 3.32278C13.3758 1.87282 11.4625 1.05823 9.46749 1.05823C7.47249 1.05823 5.5592 1.87282 4.14852 3.32278C2.73785 4.77275 1.94534 6.73933 1.94534 8.7899C1.94534 10.8405 2.73785 12.807 4.14852 14.257C5.5592 15.707 7.47249 16.5216 9.46749 16.5216Z" fill="black" fill-opacity="0.7"/>
<path d="M9.46749 17.5525C7.20649 17.5525 5.0381 16.6293 3.43933 14.986C1.84056 13.3427 0.942383 11.1139 0.942383 8.7899C0.942383 6.46592 1.84056 4.23713 3.43933 2.59384C5.0381 0.950539 7.20649 0.0273438 9.46749 0.0273438C11.7285 0.0273438 13.8969 0.950539 15.4957 2.59384C17.0944 4.23713 17.9926 6.46592 17.9926 8.7899C17.9926 11.1139 17.0944 13.3427 15.4957 14.986C13.8969 16.6293 11.7285 17.5525 9.46749 17.5525ZM9.46749 16.5216C11.4625 16.5216 13.3758 15.707 14.7865 14.257C16.1971 12.807 16.9896 10.8405 16.9896 8.7899C16.9896 6.73933 16.1971 4.77275 14.7865 3.32278C13.3758 1.87282 11.4625 1.05823 9.46749 1.05823C7.47249 1.05823 5.5592 1.87282 4.14852 3.32278C2.73785 4.77275 1.94534 6.73933 1.94534 8.7899C1.94534 10.8405 2.73785 12.807 4.14852 14.257C5.5592 15.707 7.47249 16.5216 9.46749 16.5216Z" fill="black" fill-opacity="0.7"/>
<path d="M9.46752 16.5779C7.45774 16.5779 5.53028 15.7573 4.10916 14.2965C2.68803 12.8358 1.88965 10.8547 1.88965 8.78894C1.88965 6.72318 2.68803 4.74204 4.10916 3.28133C5.53028 1.82062 7.45774 1 9.46752 1C11.4773 1 13.4048 1.82062 14.8259 3.28133C16.247 4.74204 17.0454 6.72318 17.0454 8.78894C17.0454 10.8547 16.247 12.8358 14.8259 14.2965C13.4048 15.7573 11.4773 16.5779 9.46752 16.5779ZM9.46752 15.6615C11.2409 15.6615 12.9416 14.9375 14.1955 13.6486C15.4494 12.3597 16.1539 10.6117 16.1539 8.78894C16.1539 6.96621 15.4494 5.21814 14.1955 3.92928C12.9416 2.64042 11.2409 1.91635 9.46752 1.91635C7.69419 1.91635 5.99349 2.64042 4.73955 3.92928C3.48562 5.21814 2.78116 6.96621 2.78116 8.78894C2.78116 10.6117 3.48562 12.3597 4.73955 13.6486C5.99349 14.9375 7.69419 15.6615 9.46752 15.6615Z" fill="#171717"/>
<path d="M6.62598 9.20758H12.3094V8.37305H6.62598V9.20758Z" fill="black"/>
<path d="M9.87344 11.7108V5.86914H9.06152V11.7108H9.87344Z" fill="black"/>
</g>
</svg>
